<svg width="259" height="259" viewBox="0 0 259 259" fill="none" xmlns="http://www.w3.org/2000/svg">
<path d="M95.4797 250.53C95.0009 252.229 93.2343 253.221 91.5481 252.701C61.1726 243.322 35.2836 223.047 18.9019 195.715C1.9719 167.468 -3.52382 133.82 3.53922 101.654C10.6023 69.4887 29.6901 41.2382 56.897 22.6832C84.1039 4.12825 117.373 -3.32842 149.897 1.83898C182.421 7.00638 211.74 24.4072 231.857 50.4809C251.973 76.5546 261.365 109.33 258.111 142.101C254.857 174.871 239.203 205.16 214.352 226.768C190.306 247.677 159.408 258.929 127.621 258.432C125.856 258.404 124.485 256.913 124.556 255.15V255.15C124.627 253.386 126.115 252.019 127.879 252.044C158.037 252.478 187.343 241.785 210.159 221.946C233.779 201.407 248.659 172.618 251.752 141.469C254.845 110.321 245.917 79.1676 226.797 54.3846C207.676 29.6015 179.808 13.0621 148.894 8.15046C117.98 3.23884 86.3579 10.3264 60.4977 27.9629C34.6376 45.5994 16.4946 72.4515 9.78115 103.025C3.06773 133.598 8.29141 165.581 24.3833 192.43C39.927 218.363 64.4757 237.613 93.2824 246.548C94.9679 247.07 95.9584 248.831 95.4797 250.53V250.53Z" fill="#EEEFF0"/>
</svg>
