<svg width="21" height="20" viewBox="0 0 21 20" fill="none" xmlns="http://www.w3.org/2000/svg">
<g clip-path="url(#clip0_1513_230)">
<path d="M21.0262 7.18368V16.9602C21.0262 18.6378 19.6121 19.9995 17.8669 19.9995H3.15625C2.76946 19.9995 2.39813 19.931 2.05466 19.8088C0.857139 19.3797 0 18.2653 0 16.9602V7.18368C0 6.10502 0.594118 5.10681 1.56265 4.55854L4.38162 2.97034L8.91796 0.41372C9.90197 -0.140511 11.1211 -0.140511 12.1083 0.41372L13.9277 1.43875L16.8705 3.09846L19.4636 4.55854C19.8132 4.75818 20.1134 5.01443 20.3547 5.31241C20.7849 5.83982 21.0262 6.49536 21.0262 7.18368Z" fill="url(#paint0_linear_1513_230)"/>
<path opacity="0.6" d="M12.823 5.79261C11.4956 2.64005 8.92104 0.414185 8.92104 0.414185L4.3847 2.9708L1.56574 4.559C0.5972 5.10727 0.00308228 6.10548 0.00308228 7.18415V16.9607C0.00308228 18.2658 0.860222 19.3802 2.05774 19.8093C2.40122 19.9315 2.77254 20 3.15934 20C5.3223 19.1359 7.0768 18.2241 8.48474 17.2795C11.4213 15.3159 12.8509 13.23 13.3646 11.2157C13.8597 9.2789 13.5069 7.41359 12.823 5.79261Z" fill="url(#paint1_linear_1513_230)"/>
<path opacity="0.8" d="M20.3548 5.31247C20.1134 5.01449 19.8133 4.75824 19.4636 4.55859C19.4636 4.55859 16.0258 4.56455 12.82 5.79221C11.6813 6.22725 10.5735 6.81723 9.66068 7.6158C7.52248 9.47218 6.43636 12.4668 8.48173 17.2791C8.84068 18.1283 9.29864 19.0342 9.86491 19.9996H17.8669C19.6122 19.9996 21.0263 18.6379 21.0263 16.9603V7.18374C21.0263 6.49542 20.7849 5.83988 20.3548 5.31247Z" fill="url(#paint2_linear_1513_230)"/>
<path opacity="0.6" d="M13.3644 11.2154C12.3185 9.83578 11.0839 8.55747 9.66354 7.61588C7.07355 5.88763 3.85851 5.2738 0.00292969 7.18381V16.9603C0.00292969 18.2655 0.860069 19.3799 2.05759 19.809C2.40106 19.9311 2.77239 19.9997 3.15918 19.9997H17.8698C17.8698 19.9997 16.3907 15.1933 13.3644 11.2154Z" fill="url(#paint3_linear_1513_230)"/>
</g>
<defs>
<linearGradient id="paint0_linear_1513_230" x1="3.30478" y1="8.10442" x2="11.9079" y2="13.0888" gradientUnits="userSpaceOnUse">
<stop stop-color="#026AFE"/>
<stop offset="1" stop-color="#1142BF"/>
</linearGradient>
<linearGradient id="paint1_linear_1513_230" x1="5.9257" y1="3.07509" x2="6.49412" y2="10.0751" gradientUnits="userSpaceOnUse">
<stop stop-color="#02CEFB"/>
<stop offset="1" stop-color="#1142BF" stop-opacity="0"/>
</linearGradient>
<linearGradient id="paint2_linear_1513_230" x1="9.00158" y1="12.6396" x2="18.4197" y2="12.2637" gradientUnits="userSpaceOnUse">
<stop stop-color="#02CEFB"/>
<stop offset="1" stop-color="#1142BF" stop-opacity="0"/>
</linearGradient>
<linearGradient id="paint3_linear_1513_230" x1="7.60888" y1="8.7303" x2="8.87005" y2="18.814" gradientUnits="userSpaceOnUse">
<stop stop-color="#02CEFB"/>
<stop offset="1" stop-color="#1142BF" stop-opacity="0"/>
</linearGradient>
<clipPath id="clip0_1513_230">
<rect width="21" height="20" fill="white"/>
</clipPath>
</defs>
</svg>
